<svg width="16" height="16" viewBox="0 0 16 16" fill="none" xmlns="http://www.w3.org/2000/svg">
<path d="M5.99991 12.4999C5.99991 12.3673 6.05259 12.2402 6.14636 12.1464C6.24013 12.0526 6.36731 11.9999 6.49991 11.9999H9.49992C9.63252 11.9999 9.7597 12.0526 9.85347 12.1464C9.94724 12.2402 9.99992 12.3673 9.99992 12.4999C9.99992 12.6326 9.94724 12.7597 9.85347 12.8535C9.7597 12.9473 9.63252 12.9999 9.49992 12.9999H6.49991C6.36731 12.9999 6.24013 12.9473 6.14636 12.8535C6.05259 12.7597 5.99991 12.6326 5.99991 12.4999ZM2.99991 8.06195C2.99991 6.75995 4.23492 5.76495 5.52992 5.88595C7.17301 6.0393 8.82682 6.0393 10.4699 5.88595C11.7649 5.76495 12.9999 6.75995 12.9999 8.06195V9.21895C13.004 9.4402 12.9293 9.65571 12.7892 9.82698C12.649 9.99825 12.4526 10.1141 12.2349 10.1539C11.3899 10.3009 9.89492 10.4999 7.99992 10.4999C6.10492 10.4999 4.60992 10.2999 3.76492 10.1539C3.54723 10.1141 3.35079 9.99825 3.21065 9.82698C3.07052 9.65571 2.99583 9.4402 2.99991 9.21895V8.06195ZM7.54191 7.23495C7.50294 7.22832 7.46296 7.23103 7.42524 7.24285C7.38751 7.25467 7.35313 7.27527 7.32491 7.30295L6.40492 8.20295C5.77916 8.16565 5.15504 8.10461 4.53391 8.01995C4.46955 8.01355 4.40521 8.03235 4.35442 8.0724C4.30362 8.11245 4.27032 8.17062 4.26152 8.2347C4.25272 8.29878 4.26909 8.36378 4.30721 8.41604C4.34532 8.4683 4.40221 8.50375 4.46591 8.51495C5.01591 8.59095 5.69791 8.66395 6.48591 8.70795C6.52062 8.70991 6.55536 8.7046 6.5879 8.69238C6.62044 8.68015 6.65008 8.66127 6.67492 8.63695L7.42892 7.90095L8.27592 9.61095C8.29376 9.64682 8.31996 9.67788 8.35232 9.70151C8.38467 9.72514 8.42223 9.74065 8.46184 9.74673C8.50144 9.7528 8.54192 9.74927 8.57987 9.73643C8.61783 9.72359 8.65214 9.70182 8.67992 9.67295L9.61192 8.70295C10.2547 8.66478 10.8959 8.60207 11.5339 8.51495C11.5976 8.50375 11.6545 8.4683 11.6926 8.41604C11.7307 8.36378 11.7471 8.29878 11.7383 8.2347C11.7295 8.17062 11.6962 8.11245 11.6454 8.0724C11.5946 8.03235 11.5303 8.01355 11.4659 8.01995C10.9279 8.09395 10.2589 8.16495 9.48592 8.20895C9.42298 8.21245 9.36369 8.23959 9.31991 8.28495L8.56592 9.06995L7.72392 7.36995C7.70635 7.3347 7.68072 7.3041 7.64909 7.28064C7.61746 7.25718 7.58074 7.24153 7.54191 7.23495Z" fill="white"/>
<path d="M8.5 1.86603C8.69064 1.75596 8.83964 1.58606 8.92388 1.38268C9.00812 1.17931 9.0229 0.953814 8.96593 0.741181C8.90895 0.528548 8.78341 0.340656 8.60876 0.206647C8.43412 0.0726374 8.22013 0 8 0C7.77987 0 7.56588 0.0726374 7.39124 0.206647C7.21659 0.340656 7.09105 0.528548 7.03407 0.741181C6.9771 0.953814 6.99188 1.17931 7.07612 1.38268C7.16036 1.58606 7.30936 1.75596 7.5 1.86603V3.00003H5.5C4.30653 3.00003 3.16193 3.47413 2.31802 4.31804C1.47411 5.16196 1 6.30655 1 7.50003V8.00003C0.734784 8.00003 0.48043 8.10538 0.292893 8.29292C0.105357 8.48046 0 8.73481 0 9.00003L0 11C0 11.2652 0.105357 11.5196 0.292893 11.7071C0.48043 11.8947 0.734784 12 1 12V13C1 13.5305 1.21071 14.0392 1.58579 14.4142C1.96086 14.7893 2.46957 15 3 15H13C13.5304 15 14.0391 14.7893 14.4142 14.4142C14.7893 14.0392 15 13.5305 15 13V12C15.2652 12 15.5196 11.8947 15.7071 11.7071C15.8946 11.5196 16 11.2652 16 11V9.00003C16 8.73481 15.8946 8.48046 15.7071 8.29292C15.5196 8.10538 15.2652 8.00003 15 8.00003V7.50003C15 6.30655 14.5259 5.16196 13.682 4.31804C12.8381 3.47413 11.6935 3.00003 10.5 3.00003H8.5V1.86603ZM14 7.50003V13C14 13.2652 13.8946 13.5196 13.7071 13.7071C13.5196 13.8947 13.2652 14 13 14H3C2.73478 14 2.48043 13.8947 2.29289 13.7071C2.10536 13.5196 2 13.2652 2 13V7.50003C2 6.57177 2.36875 5.68153 3.02513 5.02515C3.6815 4.36877 4.57174 4.00003 5.5 4.00003H10.5C11.4283 4.00003 12.3185 4.36877 12.9749 5.02515C13.6313 5.68153 14 6.57177 14 7.50003Z" fill="white"/>
</svg>
